<svg xmlns="http://www.w3.org/2000/svg" xmlns:xlink="http://www.w3.org/1999/xlink" width="36" height="33"><g fill="none" fill-rule="evenodd"><use xlink:href="#B" stroke="#fff" stroke-width="2"/><use xlink:href="#B" fill="#d42e12"/><path d="M16.256 28.144h-6.23l-.63-4.964-5.13-3.68a7.02 7.02 0 0 1-.226-1.766c0-.993.212-1.976.624-2.885l9.082 9.057-8.83-10.75c.347-1.394 1.117-2.65 2.205-3.605l7.915 13.475-7.014-14.75c.908-1.2 2.174-2.068 3.616-2.508l4.84 16.724-3.536-17.414c1.076-.598 2.3-.913 3.526-.913.262 0 .522.014.782.042l.72 18.11.72-18.11a7.21 7.21 0 0 1 .781-.042A7.26 7.26 0 0 1 23 5.077L19.464 22.49l4.84-16.724c1.445.44 2.71 1.318 3.617 2.508l-7.014 14.75 7.916-13.475a7.07 7.07 0 0 1 2.205 3.605l-8.83 10.75 9.084-9.057c.4.908.623 1.892.623 2.885a7.02 7.02 0 0 1-.227 1.766l-5.132 3.68-.627 4.964h-6.23l-.923.66c-.23.165-.5.254-.794.254a1.36 1.36 0 0 1-.794-.254l-.922-.66z" fill="#f7d117"/></g><defs ><path id="B" d="M15.987 31.058h-8.57l-.794-6.262-5.197-3.73c-.226-1.095-.34-2.212-.34-3.332 0-9.192 7.565-16.65 16.887-16.65s16.888 7.46 16.888 16.65c0 1.12-.115 2.237-.344 3.332l-5.196 3.73-.794 6.262h-8.57l-.495.355c-.433.31-.953.478-1.49.478a2.57 2.57 0 0 1-1.49-.478l-.495-.355z"/></defs></svg>