<?xml version="1.0" encoding="UTF-8"?>
<svg width="36px" height="33px" viewBox="0 0 36 33" version="1.1" xmlns="http://www.w3.org/2000/svg" xmlns:xlink="http://www.w3.org/1999/xlink">
    <!-- Generator: Sketch 46.2 (44496) - http://www.bohemiancoding.com/sketch -->
    <title>shell-logo</title>
    <desc>Created with Sketch.</desc>
    <defs></defs>
    <g id="Symbols" stroke="none" stroke-width="1" fill="none" fill-rule="evenodd">
        <g id="top-bar/ipad" transform="translate(-23.000000, -16.000000)">
            <g id="shell-logo">
                <g transform="translate(24.000000, 17.000000)">
                    <path d="M14.9867272,30.0581538 L6.41602517,30.0581538 L5.62209139,23.7961587 L0.425270199,20.0667611 C0.199203974,18.9716558 0.0848198676,17.8545685 0.0848198676,16.7350387 C0.0848198676,7.54277094 7.65015762,0.0837537959 16.9717868,0.0837537959 C26.2934159,0.0837537959 33.8596543,7.54277094 33.8596543,16.7350387 C33.8596543,17.8545685 33.7443695,18.9716558 33.5158265,20.0667611 L28.3201311,23.7961587 L27.5261974,30.0581538 L18.9554954,30.0581538 L18.4605815,30.4136411 C18.0273629,30.7222779 17.5072305,30.891473 16.9717868,30.891473 C16.4349921,30.891473 15.9148596,30.7222779 15.4816411,30.4136411 L14.9867272,30.0581538 Z" id="Stroke-1" stroke="#FFFFFF" stroke-width="2"></path>
                    <path d="M14.9867272,30.0581538 L6.41602517,30.0581538 L5.62209139,23.7961587 L0.425270199,20.0667611 C0.199203974,18.9716558 0.0848198676,17.8545685 0.0848198676,16.7350387 C0.0848198676,7.54277094 7.65015762,0.0837537959 16.9717868,0.0837537959 C26.2934159,0.0837537959 33.8596543,7.54277094 33.8596543,16.7350387 C33.8596543,17.8545685 33.7443695,18.9716558 33.5158265,20.0667611 L28.3201311,23.7961587 L27.5261974,30.0581538 L18.9554954,30.0581538 L18.4605815,30.4136411 C18.0273629,30.7222779 17.5072305,30.891473 16.9717868,30.891473 C16.4349921,30.891473 15.9148596,30.7222779 15.4816411,30.4136411 L14.9867272,30.0581538 Z" id="Fill-3" fill="#D42E12"></path>
                    <path d="M15.2556649,27.1442678 L9.02578411,27.1442678 L8.39622119,22.1803233 L3.26582384,18.5011069 C3.11586358,17.9238008 3.03975762,17.3311739 3.03975762,16.7349943 C3.03975762,15.7422498 3.25163841,14.758831 3.66346623,13.850462 L12.7457444,22.907729 L3.91565166,12.1569567 C4.26308212,10.7629845 5.03314834,9.50601143 6.12092318,8.55190204 L14.035943,22.026449 L7.0218106,7.27516735 C7.92967815,6.08525061 9.19578411,5.20730122 10.6381947,4.76721633 L15.4781285,21.4913306 L11.9425788,4.07733551 C13.0184199,3.47982367 14.2322874,3.16408163 15.4686715,3.16408163 C15.7305391,3.16408163 15.9910556,3.17829224 16.2504464,3.20649143 L16.9716517,21.3152522 L17.692857,3.20649143 C17.9511219,3.17829224 18.2129894,3.16408163 18.473506,3.16408163 C19.7101152,3.16408163 20.9251086,3.47982367 21.9998238,4.07733551 L18.464049,21.4913306 L23.3039828,4.76721633 C24.748645,5.20730122 26.0124993,6.08525061 26.9205921,7.27516735 L19.9064596,22.026449 L27.8226053,8.55190204 C28.911506,9.50601143 29.6802212,10.7629845 30.0278768,12.1569567 L21.1964331,22.907729 L30.2800623,13.850462 C30.6905391,14.758831 30.9035457,15.7422498 30.9035457,16.7349943 C30.9035457,17.3311739 30.8263139,17.9238008 30.6763536,18.5011069 L25.5448305,22.1803233 L24.9177444,27.1442678 L18.6889894,27.1442678 L17.7655854,27.8050612 C17.5345656,27.9704816 17.2560358,28.05952 16.9716517,28.05952 C16.6850159,28.05952 16.4087377,27.9704816 16.177943,27.8050612 L15.2556649,27.1442678 Z" id="Fill-5" fill="#F7D117"></path>
                </g>
            </g>
        </g>
    </g>
</svg>